<?xml version="1.0" encoding="UTF-8"?>
<svg id="Layer_1" data-name="Layer 1" xmlns="http://www.w3.org/2000/svg" viewBox="0 0 918.07 278.42">
  <defs>
    <style>
      .cls-1 {
        fill: none;
        stroke: #231f20;
        stroke-miterlimit: 10;
        stroke-width: .5px;
      }
    </style>
  </defs>
  <path class="cls-1" d="M917.84,72.8c-11.8,26.16-37.13,45.76-65.41,50.61-28.28,4.85-58.7-5.18-78.54-25.91-10.16-10.61-17.83-24.88-16.11-39.47,1.06-8.97,5.56-17.22,11.1-24.36,23.16-29.84,66.92-41.62,101.94-27.44,12.36,5,24.67,14.79,25.31,28.11.27,5.72-1.7,11.34-4.5,16.34-10.89,19.44-32.82,29.5-53.56,37.64-128.2,50.3-268.54,74.56-404.84,54.86-22.9-3.31-45.61-7.83-68.31-12.36-14.2-2.83-29.92-6.66-37.76-18.83-7.84-12.17,1.6-33.56,15.58-29.81,59.24,58.31,119.63,117.47,193.19,156.18,73.56,38.71,163.56,54.7,240.3,22.74-77.13,4.11-154.27-4.58-231.3-10.17-148.52-10.77-297.68-9.97-446.46-3.77-33.08,1.38-67.13,2.9-98.38-8.05"/>
</svg>